<svg xmlns="http://www.w3.org/2000/svg" width="144" height="48" viewBox="0 0 144 48">
    <g fill="none" fill-rule="evenodd">
        <g fill-rule="nonzero">
            <g>
                <g>
                    <g>
                        <g>
                            <g>
                                <path fill="#A6A6A6" d="M132.162 0H11.442c-.44 0-.875 0-1.314.002-.367.003-.732.01-1.103.016-.806.01-1.61.08-2.404.212-.794.134-1.563.388-2.282.752-.717.367-1.372.845-1.942 1.414-.573.569-1.05 1.226-1.414 1.946C.618 5.06.366 5.83.233 6.626.1 7.42.028 8.223.018 9.028c-.011.368-.012.737-.018 1.105V37.87c.006.373.007.734.018 1.107.01.805.082 1.608.215 2.402.132.795.385 1.566.75 2.285.364.718.841 1.372 1.414 1.937.568.573 1.223 1.05 1.942 1.415.719.365 1.488.62 2.282.757.795.13 1.598.201 2.404.212.371.008.736.013 1.103.013.439.002.874.002 1.314.002h120.72c.431 0 .87 0 1.3-.002.366 0 .741-.005 1.107-.013.804-.01 1.606-.081 2.4-.212.796-.138 1.568-.393 2.29-.757.718-.365 1.373-.843 1.94-1.415.572-.567 1.05-1.22 1.418-1.937.363-.72.613-1.49.743-2.285.134-.794.208-1.597.223-2.402.005-.373.005-.734.005-1.107.009-.436.009-.87.009-1.312V11.443c0-.44 0-.875-.01-1.31 0-.368 0-.737-.004-1.105-.015-.805-.09-1.608-.223-2.402-.13-.795-.38-1.565-.743-2.284-.74-1.444-1.915-2.619-3.358-3.36-.722-.363-1.494-.617-2.29-.752-.794-.133-1.596-.204-2.4-.213-.366-.005-.74-.012-1.106-.015C133.03 0 132.593 0 132.162 0z" transform="translate(-165 -610) translate(-388 -6) translate(553 372) translate(0 244)"/>
                                <path fill="#000" d="M10.134 46.95c-.366 0-.723-.005-1.085-.013-.752-.01-1.502-.075-2.243-.196-.692-.119-1.362-.34-1.988-.657-.621-.314-1.187-.726-1.677-1.22-.497-.488-.91-1.054-1.224-1.676-.318-.625-.538-1.296-.652-1.988-.123-.744-.19-1.496-.2-2.25-.007-.253-.017-1.096-.017-1.096v-27.72s.01-.83.017-1.074c.01-.753.076-1.504.199-2.247.114-.694.334-1.367.652-1.994.313-.621.724-1.188 1.218-1.678.494-.494 1.061-.908 1.683-1.227.625-.315 1.294-.536 1.984-.652.744-.122 1.497-.188 2.25-.197l1.083-.015h123.323l1.095.015c.748.01 1.493.074 2.23.195.698.119 1.373.34 2.006.658 1.245.642 2.258 1.657 2.898 2.904.312.623.529 1.29.642 1.978.124.75.194 1.506.208 2.265.004.34.004.705.004 1.068.01.45.01.879.01 1.31v25.115c0 .436 0 .861-.01 1.29 0 .39 0 .748-.005 1.116-.014.745-.082 1.488-.205 2.224-.112.697-.33 1.373-.648 2.004-.316.615-.728 1.176-1.219 1.663-.49.496-1.057.91-1.679 1.227-.63.319-1.305.541-2.002.66-.741.12-1.491.186-2.243.195-.351.008-.72.013-1.076.013l-1.301.002-122.028-.002z" transform="translate(-165 -610) translate(-388 -6) translate(553 372) translate(0 244)"/>
                            </g>
                            <g fill="#FFF">
                                <g>
                                    <path d="M18.923 14.76c.026-2.035 1.093-3.915 2.828-4.982-1.1-1.57-2.875-2.529-4.79-2.589-2.015-.211-3.968 1.206-4.995 1.206-1.047 0-2.628-1.185-4.33-1.15-2.24.073-4.278 1.315-5.368 3.274-2.32 4.018-.59 9.923 1.633 13.17 1.113 1.591 2.413 3.368 4.114 3.305 1.664-.07 2.286-1.062 4.295-1.062 1.99 0 2.574 1.062 4.309 1.022 1.786-.03 2.911-1.598 3.985-3.203.799-1.133 1.414-2.386 1.822-3.711-2.122-.897-3.5-2.976-3.503-5.28zM15.645 5.053c.974-1.169 1.453-2.672 1.337-4.189-1.488.157-2.862.868-3.849 1.992-.975 1.109-1.468 2.56-1.372 4.034 1.507.015 2.939-.662 3.884-1.837z" transform="translate(-165 -610) translate(-388 -6) translate(553 372) translate(0 244) translate(10.8 9.6)"/>
                                </g>
                                <g>
                                    <path d="M9.963 12.168h-5.68l-1.364 4.027H.513l5.38-14.901h2.5l5.38 14.901h-2.447l-1.363-4.027zM4.87 10.309h4.502l-2.22-6.537h-.061L4.87 10.31zM25.392 10.764c0 3.376-1.807 5.545-4.534 5.545-1.41.074-2.738-.665-3.419-1.9h-.051v5.38h-2.23V5.331h2.158v1.807h.041c.712-1.229 2.04-1.967 3.46-1.92 2.757 0 4.575 2.179 4.575 5.546zm-2.293 0c0-2.2-1.136-3.646-2.87-3.646-1.705 0-2.85 1.477-2.85 3.646 0 2.189 1.145 3.655 2.85 3.655 1.734 0 2.87-1.436 2.87-3.655zM37.35 10.764c0 3.376-1.808 5.545-4.535 5.545-1.41.074-2.737-.665-3.418-1.9h-.052v5.38h-2.23V5.331h2.159v1.807h.041c.711-1.229 2.04-1.967 3.46-1.92 2.757 0 4.574 2.179 4.574 5.546zm-2.293 0c0-2.2-1.136-3.646-2.87-3.646-1.705 0-2.85 1.477-2.85 3.646 0 2.189 1.145 3.655 2.85 3.655 1.734 0 2.87-1.436 2.87-3.655zM45.253 12.043c.165 1.478 1.6 2.448 3.562 2.448 1.88 0 3.232-.97 3.232-2.302 0-1.157-.816-1.85-2.747-2.324L47.37 9.4c-2.736-.661-4.007-1.941-4.007-4.018 0-2.57 2.241-4.337 5.423-4.337 3.148 0 5.307 1.766 5.38 4.337h-2.252c-.134-1.487-1.364-2.384-3.16-2.384-1.797 0-3.026.908-3.026 2.23 0 1.053.785 1.673 2.706 2.148l1.642.403c3.057.723 4.328 1.951 4.328 4.13 0 2.789-2.221 4.535-5.753 4.535-3.305 0-5.536-1.705-5.68-4.4h2.283zM59.215 2.76v2.57h2.066v1.767h-2.066v5.99c0 .93.414 1.363 1.322 1.363.246-.004.49-.021.734-.051v1.755c-.408.077-.823.111-1.239.103-2.2 0-3.057-.826-3.057-2.933V7.097h-1.58V5.33h1.58V2.76h2.24zM62.478 10.764c0-3.419 2.013-5.567 5.153-5.567 3.15 0 5.154 2.148 5.154 5.567 0 3.427-1.994 5.566-5.154 5.566s-5.153-2.139-5.153-5.566zm8.034 0c0-2.345-1.074-3.73-2.881-3.73-1.807 0-2.88 1.395-2.88 3.73 0 2.354 1.073 3.727 2.88 3.727s2.881-1.373 2.881-3.727zM74.623 5.33h2.127v1.85h.052c.296-1.19 1.387-2.01 2.613-1.963.257 0 .513.027.764.083v2.086c-.324-.099-.663-.144-1.002-.134-.655-.027-1.29.234-1.737.715-.446.48-.66 1.132-.587 1.784v6.444h-2.23V5.331zM90.461 13.004c-.3 1.973-2.22 3.326-4.678 3.326-3.16 0-5.122-2.118-5.122-5.515 0-3.408 1.972-5.618 5.028-5.618 3.006 0 4.896 2.065 4.896 5.36v.763h-7.673v.135c-.072.809.208 1.61.767 2.198.559.59 1.344.91 2.156.88 1.082.1 2.102-.52 2.509-1.529h2.117zm-7.539-3.242h5.432c.04-.727-.224-1.438-.73-1.961-.506-.524-1.207-.812-1.935-.797-.733-.004-1.438.285-1.958.803-.52.517-.81 1.221-.809 1.955z" transform="translate(-165 -610) translate(-388 -6) translate(553 372) translate(0 244) translate(10.8 9.6) translate(30 10.8)"/>
                                </g>
                            </g>
                        </g>
                        <g fill="#FFF">
                            <path d="M3.391.877c.947-.068 1.874.292 2.527.982.653.689.962 1.634.843 2.576 0 2.288-1.237 3.602-3.37 3.602H.805V.877h2.586zM1.917 7.025h1.35c.677.04 1.336-.226 1.794-.726.458-.5.666-1.179.568-1.85.091-.667-.12-1.34-.577-1.836-.457-.496-1.112-.761-1.785-.724h-1.35v5.136zM8.017 5.333c-.093-.968.372-1.906 1.198-2.419.827-.513 1.873-.513 2.7 0 .827.513 1.291 1.45 1.198 2.42.095.969-.37 1.908-1.197 2.422-.827.514-1.875.514-2.702 0-.828-.514-1.292-1.453-1.197-2.423zm4 0c0-1.171-.527-1.856-1.45-1.856-.927 0-1.449.685-1.449 1.856 0 1.18.522 1.86 1.449 1.86.923 0 1.45-.684 1.45-1.86zM19.888 8.037L18.782 8.037 17.665 4.058 17.581 4.058 16.468 8.037 15.373 8.037 13.883 2.634 14.965 2.634 15.933 6.757 16.013 6.757 17.123 2.634 18.147 2.634 19.257 6.757 19.342 6.757 20.305 2.634 21.372 2.634zM22.624 2.634h1.027v.858h.08c.277-.632.924-1.018 1.612-.963.533-.04 1.054.165 1.418.556.364.39.53.926.452 1.454v3.498h-1.066v-3.23c0-.868-.377-1.3-1.166-1.3-.361-.017-.712.125-.96.388s-.369.622-.33.981v3.161h-1.067V2.634zM28.913.524L29.979.524 29.979 8.037 28.913 8.037zM31.461 5.333c-.092-.968.372-1.906 1.199-2.419.827-.513 1.873-.513 2.7 0 .827.513 1.291 1.45 1.198 2.42.095.969-.37 1.908-1.197 2.422-.827.514-1.875.514-2.702 0-.828-.514-1.292-1.453-1.198-2.423zm4 0c0-1.171-.526-1.856-1.45-1.856-.927 0-1.448.685-1.448 1.856 0 1.18.521 1.86 1.448 1.86.924 0 1.45-.684 1.45-1.86zM37.681 6.51c0-.973.724-1.534 2.01-1.614l1.464-.084v-.467c0-.57-.378-.893-1.107-.893-.595 0-1.008.219-1.126.6H37.89c.109-.927.982-1.522 2.207-1.522 1.355 0 2.12.674 2.12 1.815v3.692H41.19v-.76h-.085c-.348.555-.968.88-1.623.85-.458.047-.916-.102-1.26-.41-.342-.308-.54-.747-.54-1.208zm3.474-.463v-.451l-1.32.084c-.744.05-1.082.303-1.082.78 0 .486.422.769 1.002.769.344.034.687-.072.95-.294.264-.223.426-.543.45-.888zM43.618 5.333c0-1.707.878-2.789 2.243-2.789.69-.032 1.335.338 1.657.948h.08V.524h1.066v7.513h-1.022v-.853h-.084c-.347.605-1 .968-1.697.942-1.375 0-2.243-1.081-2.243-2.793zm1.101 0c0 1.146.54 1.836 1.444 1.836.899 0 1.454-.7 1.454-1.831 0-1.126-.56-1.836-1.454-1.836-.898 0-1.444.694-1.444 1.831zM53.076 5.333c-.093-.968.372-1.906 1.198-2.419.827-.513 1.873-.513 2.7 0 .827.513 1.291 1.45 1.198 2.42.095.969-.37 1.908-1.197 2.422-.827.514-1.875.514-2.702 0s-1.291-1.453-1.197-2.423zm4 0c0-1.171-.527-1.856-1.45-1.856-.927 0-1.448.685-1.448 1.856 0 1.18.521 1.86 1.448 1.86.923 0 1.45-.684 1.45-1.86zM59.603 2.634h1.027v.858h.08c.277-.632.924-1.018 1.612-.963.533-.04 1.055.165 1.418.556.364.39.53.926.452 1.454v3.498h-1.066v-3.23c0-.868-.377-1.3-1.166-1.3-.361-.017-.712.125-.96.388s-.369.622-.33.981v3.161h-1.067V2.634zM70.218 1.288v1.37h1.17v.899h-1.17v2.778c0 .566.233.814.764.814.136 0 .272-.009.407-.025v.889c-.192.034-.386.052-.58.054-1.186 0-1.658-.417-1.658-1.459V3.557h-.858v-.899h.858v-1.37h1.067zM72.846.524h1.057v2.978h.084c.29-.637.95-1.024 1.648-.968.53-.029 1.044.18 1.404.57.36.39.527.919.456 1.445v3.488h-1.067V4.812c0-.863-.402-1.3-1.155-1.3-.371-.03-.737.104-1 .368-.262.264-.394.63-.361 1.001v3.156h-1.066V.524zM83.713 6.578c-.299 1.02-1.285 1.678-2.34 1.564-.721.019-1.414-.28-1.895-.817-.48-.537-.7-1.258-.602-1.972-.096-.716.124-1.439.602-1.98.478-.542 1.167-.85 1.89-.844 1.503 0 2.41 1.028 2.41 2.724v.373h-3.816v.06c-.033.4.104.797.377 1.092.274.294.66.46 1.062.455.522.063 1.03-.196 1.286-.655h1.026zm-3.75-1.741h2.729c.027-.367-.102-.728-.355-.995-.254-.266-.608-.413-.975-.405-.373-.005-.732.141-.995.405-.264.264-.41.622-.405.995z" transform="translate(-165 -610) translate(-388 -6) translate(553 372) translate(0 244) translate(42 9.6)"/>
                        </g>
                    </g>
                </g>
            </g>
        </g>
    </g>
</svg>
