<svg xmlns="http://www.w3.org/2000/svg" xmlns:xlink="http://www.w3.org/1999/xlink" width="162" height="48" viewBox="0 0 162 48">
    <defs>
        <linearGradient id="q0732vomqc" x1="61.293%" x2="25.961%" y1="95.567%" y2="27.836%">
            <stop offset="0%" stop-color="#00A0FF"/>
            <stop offset=".657%" stop-color="#00A1FF"/>
            <stop offset="26.01%" stop-color="#00BEFF"/>
            <stop offset="51.22%" stop-color="#00D2FF"/>
            <stop offset="76.04%" stop-color="#00DFFF"/>
            <stop offset="100%" stop-color="#00E3FF"/>
        </linearGradient>
        <linearGradient id="3yyecelz3f" x1="107.59%" x2="-130.464%" y1="50.868%" y2="50.868%">
            <stop offset="0%" stop-color="#FFE000"/>
            <stop offset="40.87%" stop-color="#FFBD00"/>
            <stop offset="77.54%" stop-color="orange"/>
            <stop offset="100%" stop-color="#FF9C00"/>
        </linearGradient>
        <linearGradient id="idcsb2i3vi" x1="86.725%" x2="-50.48%" y1="69.329%" y2="-37.054%">
            <stop offset="0%" stop-color="#FF3A44"/>
            <stop offset="100%" stop-color="#C31162"/>
        </linearGradient>
        <linearGradient id="p8wch9slal" x1="-19.33%" x2="41.841%" y1="112.411%" y2="65.059%">
            <stop offset="0%" stop-color="#32A071"/>
            <stop offset="6.85%" stop-color="#2DA771"/>
            <stop offset="47.62%" stop-color="#15CF74"/>
            <stop offset="80.09%" stop-color="#06E775"/>
            <stop offset="100%" stop-color="#00F076"/>
        </linearGradient>
        <linearGradient id="harpxubqqo" x1="6809.6%" x2="-17387.4%" y1="4300.35%" y2="4300.35%">
            <stop offset="0%" stop-color="#CCB300"/>
            <stop offset="40.87%" stop-color="#CC9700"/>
            <stop offset="77.54%" stop-color="#CC8400"/>
            <stop offset="100%" stop-color="#CC7D00"/>
        </linearGradient>
        <linearGradient id="0w41fuhi4r" x1="86.247%" x2="-50.141%" y1="69.439%" y2="-1.911%">
            <stop offset="0%" stop-color="#CC2E36"/>
            <stop offset="100%" stop-color="#9C0E4E"/>
        </linearGradient>
        <linearGradient id="jb048qjlsu" x1="308.135%" x2="-66.666%" y1="1531.751%" y2="449.568%">
            <stop offset="0%" stop-color="#008DE0"/>
            <stop offset=".657%" stop-color="#008DE0"/>
            <stop offset="26.01%" stop-color="#00A7E0"/>
            <stop offset="51.22%" stop-color="#00B8E0"/>
            <stop offset="76.04%" stop-color="#00C4E0"/>
            <stop offset="100%" stop-color="#00C7E0"/>
        </linearGradient>
        <linearGradient id="1o5p4slymx" x1="14404.35%" x2="-8353.95%" y1="10180.7%" y2="-12577.6%">
            <stop offset="0%" stop-color="#E0333C"/>
            <stop offset="100%" stop-color="#AB0F56"/>
        </linearGradient>
        <linearGradient id="uhri23my3A" x1="112.786%" x2="-288.225%" y1="100.021%" y2="100.021%">
            <stop offset="0%" stop-color="#E0C500"/>
            <stop offset="40.87%" stop-color="#E0A600"/>
            <stop offset="77.54%" stop-color="#E09100"/>
            <stop offset="100%" stop-color="#E08900"/>
        </linearGradient>
        <linearGradient id="9dpfaquwsD" x1="112.785%" x2="-288.199%" y1="-.024%" y2="-.024%">
            <stop offset="0%" stop-color="#FFE840"/>
            <stop offset="40.87%" stop-color="#FFCE40"/>
            <stop offset="77.54%" stop-color="#FFBC40"/>
            <stop offset="100%" stop-color="#FFB540"/>
        </linearGradient>
        <linearGradient id="45bk8pldlG" x1="967.085%" x2="-364.459%" y1="23.382%" y2="-1009.832%">
            <stop offset="0%" stop-color="#40B8FF"/>
            <stop offset=".657%" stop-color="#40B9FF"/>
            <stop offset="26.01%" stop-color="#40CEFF"/>
            <stop offset="51.22%" stop-color="#40DDFF"/>
            <stop offset="76.04%" stop-color="#40E7FF"/>
            <stop offset="100%" stop-color="#40EAFF"/>
        </linearGradient>
        <linearGradient id="ijzzcck4fJ" x1="-18.807%" x2="42.096%" y1="85.52%" y2="53.658%">
            <stop offset="0%" stop-color="#65B895"/>
            <stop offset="6.85%" stop-color="#62BD95"/>
            <stop offset="47.62%" stop-color="#50DB97"/>
            <stop offset="80.09%" stop-color="#44ED98"/>
            <stop offset="100%" stop-color="#40F498"/>
        </linearGradient>
        <path id="owng2colga" d="M.723.012L.635.097C.29.462.086 1.028.086 1.762v-.173V27.8v-.173c0 .795.238 1.393.635 1.752l14.685-14.684L.723.012M.087 27.808c0 .066.002.13.005.192-.003-.062-.005-.126-.005-.192"/>
        <path id="kmjx1sayrd" d="M5.01.025l.112.064 5.8 3.295c.552.314.92.695 1.104 1.098-.183-.403-.552-.784-1.105-1.099L5.122.088 5.011.025M5.012.2L.117 5.095l4.895 4.896 5.91-3.358c.75-.426 1.171-.976 1.241-1.537v-.002c-.07-.56-.491-1.11-1.242-1.537L5.012.199"/>
        <path id="a1de9wh5tg" d="M1.177.046C.767.046.409.179.13.43.41.18.768.047 1.178.047c.035 0 .072 0 .108.003l-.11-.003m.001.173C.767.22.41.353.13.605l14.683 14.683 4.895-4.896L2.505.617C2.03.347 1.578.22 1.177.22M.127.435C.101.458.075.484.05.51L.127.435"/>
        <path id="go0cmfmilj" d="M14.694.118L.01 14.8c.28.252.637.385 1.046.385.402 0 .854-.128 1.33-.398L19.59 5.013 14.694.118M19.7 5.124L2.387 14.96c-.477.27-.929.398-1.33.398H1.05h.007c.401 0 .852-.127 1.329-.398L19.7 5.124"/>
        <path id="az15kc74cm" d="M0.033 0.144L0.033 0.144 0.146 0.209 0.033 0.144"/>
        <path id="5tnuda87fp" d="M1.178.046C.768.046.409.18.13.432L.126.433.05.51.042.517.13.605C.41.353.767.219 1.177.219c.401 0 .852.128 1.328.398l17.203 9.775.11-.11-.111-.064L2.505.444C2.071.198 1.66.07 1.286.049L1.178.046"/>
        <path id="4ha8hwl41s" d="M.635.043C.29.407.086.973.086 1.708v.173c0-.734.204-1.3.549-1.666L.723.131.635.043"/>
        <path id="16ankiur2v" d="M0.042 0.043L0.042 0.043 0.042 0.043 0.131 0.132 0.131 0.132 0.042 0.043"/>
        <path id="iguxxpybay" d="M.144.089l-.11.11 5.91 3.358c.75.426 1.171.976 1.242 1.537 0-.206-.046-.412-.137-.612-.184-.403-.553-.784-1.106-1.098L.144.089"/>
        <path id="jm4w7lgvbB" d="M7.186 0c-.07.561-.492 1.11-1.243 1.537L.033 4.894l.111.11 5.8-3.294C6.77 1.24 7.184.62 7.185 0"/>
        <path id="9wtkaq6xzE" d="M.086.012v.182c0 .065.002.129.005.19V.398c.036.632.233 1.125.544 1.454l.086-.087C.324 1.406.086.807.086.012"/>
        <path id="ughwfjwf1H" d="M19.708.035L2.505 9.81c-.477.27-.928.398-1.33.398-.41 0-.767-.133-1.046-.384l-.087.087c.027.028.055.056.084.082l.004.003c.277.25.63.383 1.036.386H1.175c.402 0 .853-.129 1.33-.4L19.82.147l-.111-.11"/>
    </defs>
    <g fill="none" fill-rule="evenodd">
        <g>
            <g>
                <g>
                    <g>
                        <g>
                            <path fill="#000" fill-rule="nonzero" d="M154.37.296H6.222C2.963.296.296 2.963.296 6.222v35.556c0 3.259 2.667 5.926 5.926 5.926H154.37c3.26 0 5.926-2.667 5.926-5.926V6.222c0-3.259-2.666-5.926-5.926-5.926" transform="translate(-324 -610) translate(-388 -6) translate(553 372) translate(160 244) matrix(1 0 0 -1 0 48)"/>
                            <path fill="#A6A6A6" fill-rule="nonzero" d="M154.37 47.704H6.222c-3.259 0-5.926-2.667-5.926-5.926V6.222C.296 2.963 2.963.296 6.222.296H154.37c3.26 0 5.926 2.667 5.926 5.926v35.556c0 3.259-2.666 5.926-5.926 5.926m0-.948c2.745 0 4.978-2.234 4.978-4.978V6.222c0-2.745-2.233-4.978-4.978-4.978H6.222c-2.744 0-4.978 2.233-4.978 4.978v35.556c0 2.744 2.234 4.978 4.978 4.978H154.37" transform="translate(-324 -610) translate(-388 -6) translate(553 372) translate(160 244) matrix(1 0 0 -1 0 48)"/>
                            <path fill="#FFF" fill-rule="nonzero" d="M56.496 35.563c0-.993-.294-1.783-.883-2.373-.669-.702-1.54-1.053-2.613-1.053-1.026 0-1.899.356-2.616 1.068-.72.712-1.078 1.594-1.078 2.647 0 1.053.359 1.935 1.078 2.647.717.712 1.59 1.068 2.616 1.068.51 0 .997-.1 1.46-.298.463-.2.834-.464 1.112-.795l-.625-.625c-.47.562-1.119.843-1.947.843-.748 0-1.395-.263-1.942-.79-.546-.526-.82-1.21-.82-2.05 0-.84.274-1.524.82-2.051.547-.526 1.194-.79 1.942-.79.794 0 1.457.265 1.987.795.344.345.543.824.596 1.44H53v.854h3.446c.034-.186.05-.364.05-.537" transform="translate(-324 -610) translate(-388 -6) translate(553 372) translate(160 244) matrix(1 0 0 -1 0 48)"/>
                            <path fill="#FFF" fill-rule="nonzero" d="M56.496 35.563h-.119c0-.97-.284-1.724-.848-2.29h-.001v-.001c-.648-.678-1.48-1.015-2.528-1.016-.999.001-1.835.342-2.533 1.033-.697.692-1.041 1.537-1.042 2.563 0 1.026.345 1.87 1.042 2.562.698.692 1.534 1.033 2.533 1.034.494 0 .965-.096 1.413-.288.45-.194.804-.447 1.068-.762l.091.076-.084.084-.625-.626.084-.083.091.076c-.492.59-1.184.887-2.038.886-.776 0-1.459-.277-2.024-.823-.57-.548-.857-1.27-.856-2.136 0-.866.286-1.588.856-2.136.565-.547 1.248-.824 2.024-.823.82-.001 1.52.277 2.07.829.368.368.576.879.631 1.514l.011.128h-2.593v.618h3.327v.118l-.116-.02c.032-.18.047-.351.047-.517h.237c0 .18-.016.366-.051.558l-.018.098h-3.663v-1.092h2.7v.119l-.117.01c-.052-.596-.242-1.045-.562-1.367-.51-.507-1.134-.758-1.903-.759-.72.001-1.332.25-1.86.756-.521.505-.781 1.15-.783 1.966.002.816.262 1.46.784 1.966.527.507 1.139.755 1.86.756.8-.002 1.406-.267 1.856-.802l.083-.099.716.717.077.077-.07.083c-.291.347-.68.623-1.156.827-.478.205-.982.308-1.507.308-1.053.001-1.962-.37-2.7-1.102-.74-.732-1.113-1.651-1.112-2.731-.001-1.08.372-2 1.112-2.732.738-.732 1.647-1.102 2.7-1.101 1.098-.001 2.008.363 2.699 1.089l-.086.082.084-.084c.614.613.918 1.442.917 2.457h-.118M61.959 38.534L58.72 38.534 58.72 36.279 61.641 36.279 61.641 35.425 58.72 35.425 58.72 33.17 61.959 33.17 61.959 32.296 57.807 32.296 57.807 39.407 61.959 39.407 61.959 38.534" transform="translate(-324 -610) translate(-388 -6) translate(553 372) translate(160 244) matrix(1 0 0 -1 0 48)"/>
                            <path fill="#FFF" fill-rule="nonzero" d="M61.959 38.534L61.959 38.652 58.602 38.652 58.602 36.161 61.522 36.161 61.522 35.543 58.602 35.543 58.602 33.051 61.84 33.051 61.84 32.415 57.926 32.415 57.926 39.289 61.84 39.289 61.84 38.534 61.959 38.534 61.959 38.652 61.959 38.534 62.077 38.534 62.077 39.407 62.077 39.526 57.689 39.526 57.689 32.178 62.077 32.178 62.077 33.17 62.077 33.288 58.839 33.288 58.839 35.306 61.759 35.306 61.759 36.279 61.759 36.398 58.839 36.398 58.839 38.415 62.077 38.415 62.077 38.534 61.959 38.534M65.812 32.296L64.898 32.296 64.898 38.534 62.912 38.534 62.912 39.407 67.798 39.407 67.798 38.534 65.812 38.534 65.812 32.296" transform="translate(-324 -610) translate(-388 -6) translate(553 372) translate(160 244) matrix(1 0 0 -1 0 48)"/>
                            <path fill="#FFF" fill-rule="nonzero" d="M65.812 32.296L65.812 32.415 65.016 32.415 65.016 38.652 63.03 38.652 63.03 39.289 67.68 39.289 67.68 38.652 65.694 38.652 65.694 32.296 65.812 32.296 65.812 32.415 65.812 32.296 65.931 32.296 65.931 38.415 67.917 38.415 67.917 39.407 67.917 39.526 62.793 39.526 62.793 38.534 62.793 38.415 64.779 38.415 64.779 32.178 65.812 32.178 65.931 32.178 65.931 32.296 65.812 32.296M71.334 32.296L71.334 39.407 72.247 39.407 72.247 32.296 71.334 32.296" transform="translate(-324 -610) translate(-388 -6) translate(553 372) translate(160 244) matrix(1 0 0 -1 0 48)"/>
                            <path fill="#FFF" fill-rule="nonzero" d="M71.334 32.296L71.452 32.296 71.452 39.289 72.129 39.289 72.129 32.415 71.334 32.415 71.334 32.296 71.452 32.296 71.334 32.296 71.334 32.178 72.247 32.178 72.366 32.178 72.366 39.526 71.334 39.526 71.215 39.526 71.215 32.178 71.334 32.178 71.334 32.296M76.3 32.296L75.386 32.296 75.386 38.534 73.4 38.534 73.4 39.407 78.287 39.407 78.287 38.534 76.3 38.534 76.3 32.296" transform="translate(-324 -610) translate(-388 -6) translate(553 372) translate(160 244) matrix(1 0 0 -1 0 48)"/>
                            <path fill="#FFF" fill-rule="nonzero" d="M76.3 32.296L76.3 32.415 75.505 32.415 75.505 38.652 73.519 38.652 73.519 39.289 78.168 39.289 78.168 38.652 76.182 38.652 76.182 32.296 76.3 32.296 76.3 32.415 76.3 32.296 76.419 32.296 76.419 38.415 78.405 38.415 78.405 39.407 78.405 39.526 73.282 39.526 73.282 38.534 73.282 38.415 75.268 38.415 75.268 32.178 76.3 32.178 76.419 32.178 76.419 32.296 76.3 32.296M82.998 33.81c.526-.532 1.17-.798 1.932-.798.761 0 1.406.266 1.931.799.527.532.79 1.214.79 2.04 0 .828-.263 1.51-.79 2.042-.525.533-1.17.8-1.931.8-.762 0-1.406-.267-1.932-.8s-.79-1.214-.79-2.041.264-1.509.79-2.041zm4.54-.595c-.7-.719-1.57-1.078-2.608-1.078-1.04 0-1.91.36-2.607 1.078-.7.718-1.048 1.597-1.048 2.637s.349 1.918 1.048 2.636c.698.72 1.567 1.079 2.607 1.079 1.033 0 1.9-.361 2.602-1.083s1.053-1.6 1.053-2.632c0-1.04-.35-1.919-1.048-2.637" transform="translate(-324 -610) translate(-388 -6) translate(553 372) translate(160 244) matrix(1 0 0 -1 0 48)"/>
                            <path fill="#FFF" fill-rule="nonzero" d="M82.998 33.81l-.085-.083c.546-.554 1.227-.835 2.017-.834.789-.001 1.47.28 2.015.834.55.555.826 1.273.825 2.125.001.852-.275 1.57-.825 2.124-.545.555-1.226.836-2.015.835-.79.001-1.47-.28-2.017-.835-.548-.554-.825-1.272-.823-2.124-.002-.852.275-1.57.823-2.125l.085.084.084.083c-.503.512-.754 1.155-.755 1.958 0 .803.252 1.446.755 1.958.507.511 1.113.762 1.848.764.733-.002 1.34-.253 1.847-.764.504-.512.755-1.155.756-1.958-.001-.803-.252-1.446-.756-1.958-.506-.512-1.114-.763-1.847-.764-.735.001-1.34.252-1.848.764l-.084-.083zm4.54-.595l-.086.083c-.68-.697-1.51-1.04-2.522-1.042-1.013.001-1.844.345-2.522 1.042l-.003.003.003-.003c-.678.698-1.013 1.54-1.014 2.554.001 1.013.336 1.855 1.014 2.554.678.696 1.51 1.04 2.522 1.042 1.005-.001 1.834-.347 2.518-1.047.68-.702 1.017-1.543 1.018-2.55-.001-1.012-.337-1.855-1.014-2.553l.085-.083.085-.082c.719.738 1.082 1.653 1.081 2.719.001 1.06-.364 1.973-1.085 2.714-.723.744-1.627 1.12-2.688 1.12-1.067 0-1.974-.374-2.692-1.115-.72-.738-1.082-1.653-1.081-2.72-.001-1.065.361-1.98 1.081-2.719l.003-.003-.003.004c.718-.741 1.625-1.115 2.692-1.114 1.066-.001 1.973.373 2.692 1.114l-.085.082M89.867 32.296L89.867 39.407 90.979 39.407 94.435 33.875 94.475 33.875 94.435 35.246 94.435 39.407 95.35 39.407 95.35 32.296 94.396 32.296 90.78 38.096 90.741 38.096 90.78 36.725 90.78 32.296 89.867 32.296" transform="translate(-324 -610) translate(-388 -6) translate(553 372) translate(160 244) matrix(1 0 0 -1 0 48)"/>
                            <path fill="#FFF" fill-rule="nonzero" d="M89.867 32.296L89.986 32.296 89.986 39.289 90.913 39.289 94.369 33.757 94.475 33.757 94.596 33.757 94.554 35.248 94.554 39.289 95.231 39.289 95.231 32.415 94.462 32.415 90.846 38.215 90.741 38.215 90.619 38.215 90.662 36.724 90.662 32.415 89.867 32.415 89.867 32.296 89.986 32.296 89.867 32.296 89.867 32.178 90.78 32.178 90.899 32.178 90.899 36.727 90.859 38.1 90.741 38.096 90.741 37.978 90.78 37.978 90.78 38.096 90.68 38.033 94.33 32.178 95.35 32.178 95.468 32.178 95.468 39.526 94.435 39.526 94.317 39.526 94.317 35.244 94.356 33.872 94.475 33.875 94.475 33.994 94.435 33.994 94.435 33.875 94.536 33.938 91.045 39.526 89.867 39.526 89.749 39.526 89.749 32.178 89.867 32.178 89.867 32.296M127.035 12.148h2.212v14.816h-2.212V12.148zm19.92 9.48l-2.535-6.424h-.076l-2.631 6.423h-2.383l3.946-8.978-2.25-4.994h2.308l6.08 13.972h-2.46zm-12.542-7.797c-.725 0-1.735.362-1.735 1.258 0 1.144 1.259 1.582 2.344 1.582.973 0 1.43-.21 2.021-.496-.172-1.372-1.354-2.344-2.63-2.344zm.267 8.12c-1.601 0-3.26-.705-3.946-2.268l1.963-.82c.42.82 1.2 1.087 2.02 1.087 1.144 0 2.307-.687 2.326-1.907v-.152c-.4.229-1.258.572-2.306.572-2.116 0-4.27-1.162-4.27-3.336 0-1.982 1.734-3.26 3.678-3.26 1.488 0 2.307.668 2.822 1.45h.076v-1.144h2.134v5.68c0 2.63-1.962 4.098-4.497 4.098zm-13.668-2.127h-3.145v5.078h3.145c1.653 0 2.592-1.369 2.592-2.539 0-1.148-.939-2.54-2.592-2.54zm-.057 7.14h-5.299V12.148h2.21v5.614h3.09c2.45 0 4.86 1.774 4.86 4.601s-2.41 4.601-4.86 4.601zM92.06 13.828c-1.528 0-2.807 1.28-2.807 3.036 0 1.776 1.28 3.074 2.807 3.074 1.509 0 2.692-1.298 2.692-3.074 0-1.757-1.183-3.036-2.692-3.036zm2.54 6.97h-.077c-.496.591-1.451 1.126-2.654 1.126-2.52 0-4.83-2.215-4.83-5.06 0-2.826 2.31-5.021 4.83-5.021 1.203 0 2.158.534 2.654 1.145h.077v-.725c0-1.93-1.031-2.96-2.693-2.96-1.355 0-2.195.974-2.54 1.795l-1.928-.802c.554-1.337 2.025-2.979 4.468-2.979 2.597 0 4.793 1.528 4.793 5.251v9.05h-2.1v-.82zm3.627-8.65h2.215v14.817h-2.215V12.148zm5.48 4.888c-.057 1.948 1.509 2.94 2.635 2.94.88 0 1.623-.438 1.871-1.07l-4.506-1.87zm6.874 1.68c-.42 1.127-1.7 3.208-4.315 3.208-2.597 0-4.754-2.043-4.754-5.04 0-2.827 2.138-5.041 5.002-5.041 2.31 0 3.648 1.413 4.201 2.233l-1.718 1.146c-.573-.84-1.356-1.394-2.483-1.394-1.126 0-1.928.516-2.444 1.528l6.74 2.788-.229.572zm-53.698 1.661V18.24h5.117c-.153-1.203-.554-2.081-1.165-2.692-.745-.745-1.91-1.566-3.952-1.566-3.151 0-5.614 2.54-5.614 5.69 0 3.15 2.463 5.69 5.614 5.69 1.699 0 2.94-.668 3.856-1.528l1.509 1.509c-1.28 1.222-2.979 2.157-5.365 2.157-4.316 0-7.944-3.513-7.944-7.828s3.628-7.828 7.944-7.828c2.33 0 4.086.763 5.46 2.195 1.413 1.413 1.852 3.399 1.852 5.003 0 .497-.038.954-.114 1.336h-7.198zm13.13-6.549c-1.528 0-2.845 1.26-2.845 3.055 0 1.814 1.317 3.055 2.845 3.055 1.527 0 2.845-1.24 2.845-3.055 0-1.795-1.318-3.055-2.845-3.055zm0 8.096c-2.788 0-5.06-2.12-5.06-5.04 0-2.903 2.272-5.041 5.06-5.041s5.06 2.138 5.06 5.04c0 2.922-2.272 5.041-5.06 5.041zm11.038-8.096c-1.527 0-2.845 1.26-2.845 3.055 0 1.814 1.318 3.055 2.845 3.055 1.527 0 2.845-1.24 2.845-3.055 0-1.795-1.318-3.055-2.845-3.055zm0 8.096c-2.788 0-5.06-2.12-5.06-5.04 0-2.903 2.272-5.041 5.06-5.041s5.06 2.138 5.06 5.04c0 2.922-2.272 5.041-5.06 5.041" transform="translate(-324 -610) translate(-388 -6) translate(553 372) translate(160 244) matrix(1 0 0 -1 0 48)"/>
                            <g transform="translate(-324 -610) translate(-388 -6) translate(553 372) translate(160 244) matrix(1 0 0 -1 0 48) translate(12.03 9.304)">
                                <mask id="3uqt6g4a3b" fill="#fff">
                                    <use xlink:href="#owng2colga"/>
                                </mask>
                                <g fill="url(#q0732vomqc)" fill-rule="nonzero" mask="url(#3uqt6g4a3b)">
                                    <path d="M.723.012L.635.097C.29.462.086 1.028.086 1.762v-.173V27.8v-.173c0 .795.238 1.393.635 1.752l14.685-14.684L.723.012M.087 27.808c0 .066.002.13.005.192-.003-.062-.005-.126-.005-.192"/>
                                </g>
                            </g>
                            <g transform="translate(-324 -610) translate(-388 -6) translate(553 372) translate(160 244) matrix(1 0 0 -1 0 48) translate(27.319 18.904)">
                                <mask id="ehgevxxl3e" fill="#fff">
                                    <use xlink:href="#kmjx1sayrd"/>
                                </mask>
                                <g fill="url(#3yyecelz3f)" fill-rule="nonzero" mask="url(#ehgevxxl3e)">
                                    <path d="M5.01.025l.112.064 5.8 3.295c.552.314.92.695 1.104 1.098-.183-.403-.552-.784-1.105-1.099L5.122.088 5.011.025M5.012.2L.117 5.095l4.895 4.896 5.91-3.358c.75-.426 1.171-.976 1.241-1.537v-.002c-.07-.56-.491-1.11-1.242-1.537L5.012.199"/>
                                </g>
                            </g>
                            <g transform="translate(-324 -610) translate(-388 -6) translate(553 372) translate(160 244) matrix(1 0 0 -1 0 48) translate(12.622 8.711)">
                                <mask id="5n4y7zuf1h" fill="#fff">
                                    <use xlink:href="#a1de9wh5tg"/>
                                </mask>
                                <g fill="url(#idcsb2i3vi)" fill-rule="nonzero" mask="url(#5n4y7zuf1h)">
                                    <path d="M1.177.046C.767.046.409.179.13.43.41.18.768.047 1.178.047c.035 0 .072 0 .108.003l-.11-.003m.001.173C.767.22.41.353.13.605l14.683 14.683 4.895-4.896L2.505.617C2.03.347 1.578.22 1.177.22M.127.435C.101.458.075.484.05.51L.127.435"/>
                                </g>
                            </g>
                            <g transform="translate(-324 -610) translate(-388 -6) translate(553 372) translate(160 244) matrix(1 0 0 -1 0 48) translate(12.74 23.881)">
                                <mask id="bcz0xpcack" fill="#fff">
                                    <use xlink:href="#go0cmfmilj"/>
                                </mask>
                                <g fill="url(#p8wch9slal)" fill-rule="nonzero" mask="url(#bcz0xpcack)">
                                    <path d="M14.694.118L.01 14.8c.28.252.637.385 1.046.385.402 0 .854-.128 1.33-.398L19.59 5.013 14.694.118M19.7 5.124L2.387 14.96c-.477.27-.929.398-1.33.398H1.05h.007c.401 0 .852-.127 1.329-.398L19.7 5.124"/>
                                </g>
                            </g>
                            <path fill="#000" fill-rule="nonzero" d="M13.908 8.76c.373.021.786.15 1.22.395l17.201 9.774-17.202-9.774c-.433-.246-.846-.374-1.219-.395" transform="translate(-324 -610) translate(-388 -6) translate(553 372) translate(160 244) matrix(1 0 0 -1 0 48)"/>
                            <g transform="translate(-324 -610) translate(-388 -6) translate(553 372) translate(160 244) matrix(1 0 0 -1 0 48) translate(32.296 18.785)">
                                <mask id="6gd3m5zkyn" fill="#fff">
                                    <use xlink:href="#az15kc74cm"/>
                                </mask>
                                <g fill="url(#harpxubqqo)" fill-rule="nonzero" mask="url(#6gd3m5zkyn)">
                                    <path d="M0.033 0.144L0.033 0.144 0.146 0.209 0.033 0.144"/>
                                </g>
                            </g>
                            <g transform="translate(-324 -610) translate(-388 -6) translate(553 372) translate(160 244) matrix(1 0 0 -1 0 48) translate(12.622 8.711)">
                                <mask id="ohp3zz8gzq" fill="#fff">
                                    <use xlink:href="#5tnuda87fp"/>
                                </mask>
                                <g fill="url(#0w41fuhi4r)" fill-rule="nonzero" mask="url(#ohp3zz8gzq)">
                                    <path d="M1.178.046C.768.046.409.18.13.432L.126.433.05.51.042.517.13.605C.41.353.767.219 1.177.219c.401 0 .852.128 1.328.398l17.203 9.775.11-.11-.111-.064L2.505.444C2.071.198 1.66.07 1.286.049L1.178.046"/>
                                </g>
                            </g>
                            <path fill="#000" fill-rule="nonzero" d="M12.664 9.227c-.345.365-.548.932-.548 1.666 0-.734.203-1.3.548-1.665" transform="translate(-324 -610) translate(-388 -6) translate(553 372) translate(160 244) matrix(1 0 0 -1 0 48)"/>
                            <g transform="translate(-324 -610) translate(-388 -6) translate(553 372) translate(160 244) matrix(1 0 0 -1 0 48) translate(12.03 9.185)">
                                <mask id="7xjutpmhyt" fill="#fff">
                                    <use xlink:href="#4ha8hwl41s"/>
                                </mask>
                                <g fill="url(#jb048qjlsu)" fill-rule="nonzero" mask="url(#7xjutpmhyt)">
                                    <path d="M.635.043C.29.407.086.973.086 1.708v.173c0-.734.204-1.3.549-1.666L.723.131.635.043"/>
                                </g>
                            </g>
                            <g transform="translate(-324 -610) translate(-388 -6) translate(553 372) translate(160 244) matrix(1 0 0 -1 0 48) translate(12.622 9.185)">
                                <mask id="zqtma91suw" fill="#fff">
                                    <use xlink:href="#16ankiur2v"/>
                                </mask>
                                <g fill="url(#1o5p4slymx)" fill-rule="nonzero" mask="url(#zqtma91suw)">
                                    <path d="M0.042 0.043L0.042 0.043 0.042 0.043 0.131 0.132 0.131 0.132 0.042 0.043"/>
                                </g>
                            </g>
                            <path fill="#000" fill-rule="nonzero" d="M39.345 23.386c.091.2.137.406.137.611v.001c0-.206-.046-.411-.137-.612" transform="translate(-324 -610) translate(-388 -6) translate(553 372) translate(160 244) matrix(1 0 0 -1 0 48)"/>
                            <g transform="translate(-324 -610) translate(-388 -6) translate(553 372) translate(160 244) matrix(1 0 0 -1 0 48) translate(32.296 18.904)">
                                <mask id="hcf9btwahz" fill="#fff">
                                    <use xlink:href="#iguxxpybay"/>
                                </mask>
                                <g fill="url(#uhri23my3A)" fill-rule="nonzero" mask="url(#hcf9btwahz)">
                                    <path d="M.144.089l-.11.11 5.91 3.358c.75.426 1.171.976 1.242 1.537 0-.206-.046-.412-.137-.612-.184-.403-.553-.784-1.106-1.098L.144.089"/>
                                </g>
                            </g>
                            <path fill="#404040" fill-rule="nonzero" d="M39.482 24c0 .62-.415 1.24-1.242 1.71l-5.8 3.295 5.8-3.295c.828-.47 1.243-1.091 1.242-1.71" transform="translate(-324 -610) translate(-388 -6) translate(553 372) translate(160 244) matrix(1 0 0 -1 0 48)"/>
                            <g transform="translate(-324 -610) translate(-388 -6) translate(553 372) translate(160 244) matrix(1 0 0 -1 0 48) translate(32.296 24)">
                                <mask id="lezmqj2c4C" fill="#fff">
                                    <use xlink:href="#jm4w7lgvbB"/>
                                </mask>
                                <g fill="url(#9dpfaquwsD)" fill-rule="nonzero" mask="url(#lezmqj2c4C)">
                                    <path d="M7.186 0c-.07.561-.492 1.11-1.243 1.537L.033 4.894l.111.11 5.8-3.294C6.77 1.24 7.184.62 7.185 0"/>
                                </g>
                            </g>
                            <path fill="#404040" fill-rule="nonzero" d="M12.121 37.316c.069 1.217.73 1.92 1.667 1.925-.406-.003-.76-.136-1.036-.385l-.003-.003c-.03-.027-.057-.054-.085-.083-.31-.33-.507-.822-.543-1.454" transform="translate(-324 -610) translate(-388 -6) translate(553 372) translate(160 244) matrix(1 0 0 -1 0 48)"/>
                            <g transform="translate(-324 -610) translate(-388 -6) translate(553 372) translate(160 244) matrix(1 0 0 -1 0 48) translate(12.03 36.919)">
                                <mask id="ip23btjwpF" fill="#fff">
                                    <use xlink:href="#9wtkaq6xzE"/>
                                </mask>
                                <g fill="url(#45bk8pldlG)" fill-rule="nonzero" mask="url(#ip23btjwpF)">
                                    <path d="M.086.012v.182c0 .065.002.129.005.19V.398c.036.632.233 1.125.544 1.454l.086-.087C.324 1.406.086.807.086.012"/>
                                </g>
                            </g>
                            <path fill="#404040" fill-rule="nonzero" d="M13.79 39.242h.003-.004" transform="translate(-324 -610) translate(-388 -6) translate(553 372) translate(160 244) matrix(1 0 0 -1 0 48)"/>
                            <g transform="translate(-324 -610) translate(-388 -6) translate(553 372) translate(160 244) matrix(1 0 0 -1 0 48) translate(12.622 28.86)">
                                <mask id="tc6wvrqw2I" fill="#fff">
                                    <use xlink:href="#ughwfjwf1H"/>
                                </mask>
                                <g fill="url(#ijzzcck4fJ)" fill-rule="nonzero" mask="url(#tc6wvrqw2I)">
                                    <path d="M19.708.035L2.505 9.81c-.477.27-.928.398-1.33.398-.41 0-.767-.133-1.046-.384l-.087.087c.027.028.055.056.084.082l.004.003c.277.25.63.383 1.036.386H1.175c.402 0 .853-.129 1.33-.4L19.82.147l-.111-.11"/>
                                </g>
                            </g>
                        </g>
                    </g>
                </g>
            </g>
        </g>
    </g>
</svg>
