<svg width="16" height="18" viewBox="0 0 16 18" fill="none" xmlns="http://www.w3.org/2000/svg">
<path fill-rule="evenodd" clip-rule="evenodd" d="M15.1836 14.018C14.9115 14.6464 14.5896 15.2249 14.2165 15.7568C13.708 16.4818 13.2916 16.9837 12.9707 17.2624C12.4733 17.7198 11.9403 17.9541 11.3696 17.9674C10.9599 17.9674 10.4658 17.8508 9.89065 17.6143C9.31361 17.3789 8.78332 17.2624 8.29844 17.2624C7.78991 17.2624 7.24452 17.3789 6.66115 17.6143C6.0769 17.8508 5.60623 17.9741 5.24637 17.9863C4.69909 18.0096 4.15359 17.7687 3.60908 17.2624C3.26155 16.9592 2.82686 16.4396 2.30612 15.7035C1.7474 14.9174 1.28806 14.0058 0.928201 12.9665C0.542806 11.844 0.349609 10.757 0.349609 9.70459C0.349609 8.49911 0.610092 7.4594 1.13183 6.58813C1.54188 5.88829 2.08738 5.33623 2.77012 4.93096C3.45286 4.52569 4.19056 4.31917 4.985 4.30596C5.41969 4.30596 5.98974 4.44042 6.69812 4.70468C7.40451 4.96983 7.85808 5.10429 8.05694 5.10429C8.20562 5.10429 8.70948 4.94706 9.56366 4.63362C10.3714 4.34293 11.0532 4.22257 11.6117 4.26999C13.125 4.39212 14.262 4.9887 15.0181 6.0635C13.6646 6.88358 12.9951 8.03222 13.0084 9.50573C13.0207 10.6535 13.437 11.6086 14.2553 12.3669C14.6262 12.7189 15.0403 12.9909 15.5011 13.1841C15.4012 13.4739 15.2957 13.7515 15.1836 14.018ZM11.7127 0.359859C11.7127 1.25946 11.384 2.09941 10.7289 2.87686C9.93839 3.8011 8.98218 4.33516 7.94524 4.25089C7.93203 4.14296 7.92437 4.02938 7.92437 3.91002C7.92437 3.04641 8.30033 2.12217 8.96797 1.36648C9.30129 0.983863 9.72521 0.665721 10.2393 0.411933C10.7523 0.161932 11.2375 0.0236758 11.6938 0C11.7071 0.120262 11.7127 0.240532 11.7127 0.359848V0.359859Z" fill="#FCFCFC"/>
</svg>
